<svg width="2221" height="936" viewBox="0 0 2221 936" fill="none" xmlns="http://www.w3.org/2000/svg">
<path d="M1186.31 458H1086.8L1087.43 384.393H1186.31C1211 384.393 1231.82 378.835 1248.76 367.721C1265.72 356.397 1278.49 339.935 1287.06 318.335C1295.85 296.735 1300.24 270.627 1300.24 240.01V217.676C1300.24 194.189 1297.74 173.532 1292.72 155.707C1287.89 137.883 1280.67 122.887 1271.05 110.725C1261.42 98.5622 1249.6 89.439 1235.58 83.3586C1221.57 77.0664 1205.45 73.9212 1187.24 73.9212H1084.92V0H1187.24C1217.8 0 1245.73 5.24201 1271.05 15.7278C1296.57 26.0036 1318.66 40.7871 1337.27 60.0801C1355.91 79.3732 1370.24 102.442 1380.28 129.284C1390.53 155.917 1395.66 185.59 1395.66 218.304V240.01C1395.66 272.514 1390.53 302.187 1380.28 329.031C1370.24 355.873 1355.91 378.941 1337.27 398.234C1318.87 417.317 1296.78 432.101 1271.05 442.586C1245.52 452.862 1217.27 458 1186.31 458ZM1140.17 0V458H1046V0H1140.17ZM1633.36 256.996H1515.96L1515.34 192.197H1613.9C1631.26 192.197 1645.49 189.994 1656.59 185.59C1667.67 180.976 1675.94 174.372 1681.38 165.773C1687.02 156.966 1689.86 146.27 1689.86 133.687C1689.86 119.428 1687.13 107.894 1681.68 99.0864C1676.45 90.2791 1668.19 83.8828 1656.89 79.8974C1645.81 75.9139 1631.47 73.9212 1613.9 73.9212H1548.61V458H1454.44V0H1613.9C1640.47 0 1664.21 2.51687 1685.14 7.54885C1706.27 12.5826 1724.16 20.2356 1738.82 30.5113C1753.47 40.7871 1764.65 53.7897 1772.4 69.5175C1780.15 85.0353 1784.01 103.49 1784.01 124.88C1784.01 143.755 1779.73 161.159 1771.15 177.097C1762.77 193.035 1749.49 206.038 1731.28 216.103C1713.28 226.169 1689.75 231.727 1660.66 232.775L1633.36 256.996ZM1629.27 458H1490.23L1526.95 384.393H1629.27C1645.81 384.393 1659.3 381.772 1669.76 376.528C1680.22 371.076 1687.97 363.737 1692.99 354.51C1698.01 345.283 1700.53 334.693 1700.53 322.738C1700.53 309.317 1698.22 297.679 1693.62 287.823C1689.22 277.966 1682.11 270.417 1672.28 265.175C1662.43 259.721 1649.47 256.996 1633.36 256.996H1542.64L1543.28 192.197H1656.27L1677.92 217.676C1705.76 217.256 1728.14 222.184 1745.09 232.459C1762.26 242.525 1774.71 255.632 1782.44 271.78C1790.4 287.928 1794.38 305.228 1794.38 323.683C1794.38 353.042 1787.99 377.787 1775.22 397.918C1762.47 417.841 1743.73 432.835 1719.04 442.901C1694.56 452.966 1664.64 458 1629.27 458ZM1932.88 0L2018.87 159.797L2104.89 0H2212.55L2079.77 227.113L2216 458H2107.39L2018.87 295.058L1930.38 458H1821.13L1957.67 227.113L1824.58 0H1932.88Z" fill="#7A18D5"/>
<path d="M1119.07 738.741H1067.25L1067.58 700.6H1119.07C1131.93 700.6 1142.78 697.721 1151.61 691.962C1160.44 686.094 1167.08 677.564 1171.56 666.372C1176.12 655.179 1178.41 641.651 1178.41 625.786V614.214C1178.41 602.044 1177.11 591.341 1174.48 582.105C1171.98 572.868 1168.23 565.098 1163.2 558.796C1158.2 552.494 1152.03 547.766 1144.74 544.616C1137.44 541.355 1129.05 539.726 1119.56 539.726H1066.27V501.422H1119.56C1135.47 501.422 1150.02 504.139 1163.2 509.573C1176.51 514.896 1188 522.556 1197.71 532.555C1207.4 542.551 1214.87 554.504 1220.1 568.413C1225.44 582.213 1228.1 597.588 1228.1 614.54V625.786C1228.1 642.63 1225.44 658.004 1220.1 671.914C1214.87 685.823 1207.4 697.775 1197.71 707.772C1188.12 717.66 1176.61 725.322 1163.2 730.754C1149.92 736.079 1135.21 738.741 1119.07 738.741ZM1095.04 501.422V738.741H1046V501.422H1095.04ZM1310.87 501.422V738.741H1261.99V501.422H1310.87ZM1540.43 614.702V708.751C1536.73 713.204 1531 718.041 1523.27 723.257C1515.53 728.363 1505.56 732.764 1493.37 736.459C1481.15 740.153 1466.39 742 1449.05 742C1433.68 742 1419.69 739.502 1407.04 734.503C1394.41 729.396 1383.5 721.952 1374.36 712.173C1365.3 702.394 1358.32 690.44 1353.42 676.315C1348.52 662.08 1346.07 645.834 1346.07 627.58V612.747C1346.07 594.492 1348.42 578.246 1353.1 564.012C1357.9 549.778 1364.7 537.769 1373.53 527.99C1382.35 518.211 1392.87 510.767 1405.09 505.66C1417.28 500.553 1430.85 498 1445.79 498C1466.49 498 1483.5 501.368 1496.78 508.106C1510.09 514.733 1520.22 523.97 1527.2 535.814C1534.28 547.55 1538.63 561.023 1540.27 576.236H1492.7C1491.5 568.195 1489.21 561.187 1485.84 555.21C1482.46 549.233 1477.61 544.561 1471.29 541.193C1465.08 537.824 1457.01 536.141 1447.09 536.141C1438.92 536.141 1431.62 537.824 1425.19 541.193C1418.87 544.452 1413.53 549.287 1409.17 555.698C1404.8 562.111 1401.49 570.042 1399.2 579.496C1396.91 588.949 1395.76 599.925 1395.76 612.422V627.58C1395.76 639.966 1396.96 650.942 1399.36 660.504C1401.76 669.958 1405.3 677.945 1409.98 684.463C1414.78 690.876 1420.66 695.711 1427.64 698.97C1434.62 702.231 1442.74 703.859 1451.99 703.859C1459.73 703.859 1466.16 703.208 1471.29 701.904C1476.52 700.6 1480.71 699.024 1483.87 697.178C1487.15 695.221 1489.65 693.374 1491.39 691.635V649.584H1446.6V614.702H1540.43ZM1627.13 501.422V738.741H1578.25V501.422H1627.13ZM1769.55 501.422V738.741H1720.67V501.422H1769.55ZM1842.79 501.422V539.726H1648.59V501.422H1842.79ZM1944.85 542.007L1880.11 738.741H1827.97L1916.41 501.422H1949.59L1944.85 542.007ZM1998.63 738.741L1933.73 542.007L1928.49 501.422H1962.01L2050.94 738.741H1998.63ZM1995.68 650.399V688.703H1869.98V650.399H1995.68ZM2221 700.6V738.741H2101.18V700.6H2221ZM2117.04 501.422V738.741H2067.98V501.422H2117.04Z" fill="#7A18D5"/>
<path d="M1151.12 908.852V933.862H1068.53V908.852H1151.12ZM1078.97 778.245V933.862H1047V778.245H1078.97ZM1140.37 841.625V865.994H1068.53V841.625H1140.37ZM1151.02 778.245V803.361H1068.53V778.245H1151.02ZM1251 882.239H1282.88C1282.23 892.713 1279.36 902.012 1274.24 910.136C1269.18 918.257 1262.13 924.6 1253.03 929.16C1244.01 933.719 1233.13 936 1220.41 936C1210.46 936 1201.55 934.289 1193.67 930.87C1185.78 927.378 1179.02 922.39 1173.41 915.906C1167.88 909.423 1163.64 901.585 1160.73 892.393C1157.81 883.202 1156.37 872.905 1156.37 861.505V850.71C1156.37 839.309 1157.85 829.014 1160.84 819.82C1163.88 810.558 1168.23 802.685 1173.85 796.201C1179.52 789.716 1186.31 784.729 1194.2 781.237C1202.08 777.746 1210.9 776 1220.64 776C1233.56 776 1244.47 778.351 1253.34 783.054C1262.3 787.756 1269.24 794.242 1274.13 802.507C1279.11 810.772 1282.09 820.177 1283.09 830.723H1251.11C1250.75 824.452 1249.5 819.144 1247.37 814.798C1245.24 810.38 1242.02 807.067 1237.68 804.858C1233.42 802.578 1227.73 801.437 1220.64 801.437C1215.3 801.437 1210.64 802.436 1206.66 804.431C1202.68 806.426 1199.35 809.453 1196.64 813.515C1193.95 817.577 1191.93 822.707 1190.57 828.906C1189.28 835.033 1188.65 842.23 1188.65 850.495V861.505C1188.65 869.556 1189.25 876.645 1190.46 882.774C1191.68 888.831 1193.53 893.961 1196.01 898.164C1198.56 902.296 1201.84 905.433 1205.81 907.569C1209.86 909.636 1214.74 910.669 1220.41 910.669C1227.1 910.669 1232.61 909.601 1236.94 907.463C1241.27 905.325 1244.58 902.155 1246.85 897.95C1249.19 893.747 1250.58 888.51 1251 882.239ZM1422.61 852.419V859.794C1422.61 871.623 1421.01 882.239 1417.81 891.645C1414.62 901.05 1410.1 909.066 1404.27 915.693C1398.44 922.249 1391.49 927.271 1383.39 930.763C1375.35 934.254 1366.44 936 1356.64 936C1346.9 936 1337.98 934.254 1329.88 930.763C1321.85 927.271 1314.88 922.249 1308.99 915.693C1303.09 909.066 1298.51 901.05 1295.24 891.645C1292.05 882.239 1290.45 871.623 1290.45 859.794V852.419C1290.45 840.52 1292.05 829.903 1295.24 820.569C1298.44 811.164 1302.95 803.148 1308.77 796.521C1314.67 789.894 1321.64 784.835 1329.67 781.345C1337.77 777.853 1346.69 776.108 1356.43 776.108C1366.23 776.108 1375.14 777.853 1383.16 781.345C1391.28 784.835 1398.23 789.894 1404.06 796.521C1409.96 803.148 1414.52 811.164 1417.7 820.569C1420.98 829.903 1422.61 840.52 1422.61 852.419ZM1390.31 859.794V852.206C1390.31 843.941 1389.57 836.673 1388.08 830.403C1386.58 824.133 1384.38 818.86 1381.47 814.585C1378.55 810.309 1375 807.102 1370.81 804.964C1366.62 802.756 1361.81 801.652 1356.43 801.652C1351.02 801.652 1346.22 802.756 1342.03 804.964C1337.91 807.102 1334.39 810.309 1331.48 814.585C1328.63 818.86 1326.46 824.133 1324.99 830.403C1323.49 836.673 1322.73 843.941 1322.73 852.206V859.794C1322.73 867.989 1323.49 875.256 1324.99 881.599C1326.46 887.869 1328.67 893.177 1331.59 897.523C1334.49 901.798 1338.05 905.041 1342.24 907.249C1346.44 909.458 1351.23 910.563 1356.64 910.563C1362.04 910.563 1366.83 909.458 1371.02 907.249C1375.21 905.041 1378.73 901.798 1381.58 897.523C1384.41 893.177 1386.58 887.869 1388.08 881.599C1389.57 875.256 1390.31 867.989 1390.31 859.794ZM1517.69 893.142C1517.69 890.361 1517.26 887.869 1516.4 885.659C1515.63 883.38 1514.13 881.313 1511.93 879.461C1509.73 877.537 1506.63 875.648 1502.65 873.796C1498.67 871.943 1493.53 870.019 1487.2 868.024C1480.17 865.743 1473.49 863.178 1467.17 860.329C1460.92 857.478 1455.37 854.165 1450.53 850.389C1445.78 846.541 1442.01 842.087 1439.25 837.03C1436.54 831.971 1435.2 826.092 1435.2 819.393C1435.2 812.909 1436.61 807.031 1439.46 801.758C1442.29 796.415 1446.27 791.854 1451.39 788.078C1456.52 784.23 1462.55 781.273 1469.51 779.207C1476.55 777.14 1484.26 776.108 1492.64 776.108C1504.08 776.108 1514.06 778.173 1522.58 782.307C1531.12 786.44 1537.72 792.104 1542.42 799.299C1547.17 806.496 1549.55 814.726 1549.55 823.99H1517.79C1517.79 819.428 1516.84 815.439 1514.92 812.02C1513.07 808.528 1510.22 805.785 1506.39 803.788C1502.62 801.794 1497.87 800.796 1492.11 800.796C1486.56 800.796 1481.95 801.653 1478.26 803.361C1474.56 805.001 1471.78 807.245 1469.93 810.096C1468.1 812.874 1467.17 816.009 1467.17 819.501C1467.17 822.136 1467.8 824.525 1469.08 826.661C1470.44 828.798 1472.43 830.795 1475.05 832.647C1477.67 834.5 1480.91 836.246 1484.75 837.884C1488.59 839.522 1493.02 841.125 1498.08 842.695C1506.53 845.259 1513.95 848.144 1520.34 851.351C1526.82 854.557 1532.21 858.156 1536.56 862.146C1540.89 866.135 1544.16 870.661 1546.36 875.72C1548.56 880.778 1549.65 886.515 1549.65 892.928C1549.65 899.696 1548.35 905.753 1545.71 911.098C1543.09 916.441 1539.29 920.965 1534.3 924.671C1529.34 928.376 1523.41 931.19 1516.51 933.114C1509.62 935.038 1501.91 936 1493.38 936C1485.72 936 1478.15 935.003 1470.69 933.008C1463.22 930.941 1456.45 927.841 1450.32 923.709C1444.28 919.576 1439.46 914.303 1435.83 907.89C1432.21 901.477 1430.39 893.888 1430.39 885.126H1462.48C1462.48 889.969 1463.22 894.067 1464.72 897.417C1466.22 900.766 1468.31 903.474 1471 905.539C1473.77 907.606 1477.04 909.101 1480.81 910.028C1484.65 910.955 1488.83 911.417 1493.38 911.417C1498.92 911.417 1503.48 910.633 1507.02 909.066C1510.65 907.498 1513.32 905.325 1515.03 902.547C1516.79 899.768 1517.69 896.633 1517.69 893.142ZM1583.98 778.245L1616.39 849.213L1648.79 778.245H1683.65L1632.58 877.216V933.862H1600.19V877.216L1549.04 778.245H1583.98ZM1768.16 893.142C1768.16 890.361 1767.74 887.869 1766.89 885.659C1766.1 883.38 1764.62 881.313 1762.4 879.461C1760.2 877.537 1757.12 875.648 1753.14 873.796C1749.17 871.943 1744.01 870.019 1737.69 868.024C1730.65 865.743 1723.98 863.178 1717.66 860.329C1711.39 857.478 1705.84 854.165 1701.02 850.389C1696.27 846.541 1692.5 842.087 1689.72 837.03C1687.03 831.971 1685.67 826.092 1685.67 819.393C1685.67 812.909 1687.1 807.031 1689.93 801.758C1692.78 796.415 1696.76 791.854 1701.87 788.078C1706.99 784.23 1713.03 781.273 1720 779.207C1727.02 777.14 1734.73 776.108 1743.13 776.108C1754.55 776.108 1764.55 778.173 1773.07 782.307C1781.59 786.44 1788.21 792.104 1792.89 799.299C1797.66 806.496 1800.04 814.726 1800.04 823.99H1768.26C1768.26 819.428 1767.31 815.439 1765.4 812.02C1763.55 808.528 1760.71 805.785 1756.88 803.788C1753.11 801.794 1748.34 800.796 1742.58 800.796C1737.04 800.796 1732.42 801.653 1728.73 803.361C1725.03 805.001 1722.27 807.245 1720.42 810.096C1718.57 812.874 1717.66 816.009 1717.66 819.501C1717.66 822.136 1718.29 824.525 1719.56 826.661C1720.91 828.798 1722.9 830.795 1725.54 832.647C1728.16 834.5 1731.4 836.246 1735.24 837.884C1739.08 839.522 1743.51 841.125 1748.55 842.695C1757.02 845.259 1764.44 848.144 1770.83 851.351C1777.29 854.557 1782.7 858.156 1787.03 862.146C1791.36 866.135 1794.63 870.661 1796.83 875.72C1799.03 880.778 1800.14 886.515 1800.14 892.928C1800.14 899.696 1798.82 905.753 1796.2 911.098C1793.56 916.441 1789.78 920.965 1784.79 924.671C1779.81 928.376 1773.88 931.19 1767 933.114C1760.1 935.038 1752.39 936 1743.87 936C1736.19 936 1728.62 935.003 1721.16 933.008C1713.7 930.941 1706.92 927.841 1700.81 923.709C1694.77 919.576 1689.93 914.303 1686.31 907.89C1682.7 901.477 1680.88 893.888 1680.88 885.126H1712.96C1712.96 889.969 1713.7 894.067 1715.19 897.417C1716.69 900.766 1718.78 903.474 1721.48 905.539C1724.26 907.606 1727.53 909.101 1731.3 910.028C1735.12 910.955 1739.33 911.417 1743.87 911.417C1749.41 911.417 1753.95 910.633 1757.51 909.066C1761.14 907.498 1763.79 905.325 1765.5 902.547C1767.28 899.768 1768.16 896.633 1768.16 893.142ZM1882.54 778.245V933.862H1850.66V778.245H1882.54ZM1930.28 778.245V803.361H1803.66V778.245H1930.28ZM2043.91 908.852V933.862H1961.3V908.852H2043.91ZM1971.76 778.245V933.862H1939.77V778.245H1971.76ZM2033.14 841.625V865.994H1961.3V841.625H2033.14ZM2043.8 778.245V803.361H1961.3V778.245H2043.8ZM2068.43 778.245H2095.5L2135.36 892.499L2175.23 778.245H2202.3L2146.24 933.862H2124.5L2068.43 778.245ZM2053.82 778.245H2080.79L2085.7 889.615V933.862H2053.82V778.245ZM2189.93 778.245H2217V933.862H2185.03V889.615L2189.93 778.245Z" fill="#7A18D5"/>
<path d="M0 0H883L873 107.5L13 105.5L0 0Z" fill="#7A18D5"/>
<path d="M164 572L452.5 800L452.5 928.5L79.9996 633.5L164 572Z" fill="#7A18D5"/>
<path d="M159.004 517.5L164.504 573.5L80.004 633.5L55.5 439.5L159.004 517.5Z" fill="#7A18D5"/>
<path d="M733.5 575L452.5 800L446.999 863.5L452.5 928.5L819.499 631L733.5 575Z" fill="#7A18D5"/>
<path d="M299 463.5H659.5L624 557H273.5L299 463.5Z" fill="#7A18D5"/>
<path d="M12.7344 102.102L118.5 94.5L138 341L47.5 384L12.7344 102.102Z" fill="#7A18D5"/>
<path d="M47.5 384L137 338.5L306.5 464.5L273.46 557L47.5 384Z" fill="#7A18D5"/>
<path d="M47.5 384L137 338.5L306.5 464.5L273.46 557L47.5 384Z" fill="#7A18D5"/>
<path d="M781.999 95.6584L874 96.5L849.001 352L764.001 281L781.999 95.6584Z" fill="#7A18D5"/>
<rect x="272" y="221" width="363" height="94" fill="#7A18D5"/>
<path d="M635.07 221L842 392L762.5 448L573.673 297.003L635.07 221Z" fill="#7A18D5"/>
<path d="M842 392L819.5 631L733.5 575L746.781 387L842 392Z" fill="#7A18D5"/>
<path d="M154 318.5L272.001 221.001L335.501 282.501L228.5 371L154 318.5Z" fill="#7A18D5"/>
<path d="M595 463L664 406.5L723 462L624 557L595 463Z" fill="#7A18D5"/>
</svg>
